<?xml version="1.0" encoding="UTF-8" standalone="no"?>
<!-- Created with Inkscape (http://www.inkscape.org/) -->

<svg
   xmlns:dc="http://purl.org/dc/elements/1.1/"
   xmlns:cc="http://creativecommons.org/ns#"
   xmlns:rdf="http://www.w3.org/1999/02/22-rdf-syntax-ns#"
   xmlns:svg="http://www.w3.org/2000/svg"
   xmlns="http://www.w3.org/2000/svg"
   xmlns:sodipodi="http://sodipodi.sourceforge.net/DTD/sodipodi-0.dtd"
   xmlns:inkscape="http://www.inkscape.org/namespaces/inkscape"
   width="77.999985mm"
   height="13.433389mm"
   viewBox="0 0 276.37782 47.598615"
   id="svg3619"
   version="1.1"
   inkscape:version="0.91 r13725"
   sodipodi:docname="switchdev_logo_blue.svg">
  <defs
     id="defs3621" />
  <sodipodi:namedview
     id="base"
     pagecolor="#ffffff"
     bordercolor="#666666"
     borderopacity="1.0"
     inkscape:pageopacity="0.0"
     inkscape:pageshadow="2"
     inkscape:zoom="1.4"
     inkscape:cx="129.50522"
     inkscape:cy="83.357777"
     inkscape:document-units="px"
     inkscape:current-layer="layer1"
     showgrid="false"
     inkscape:window-width="1366"
     inkscape:window-height="768"
     inkscape:window-x="0"
     inkscape:window-y="0"
     inkscape:window-maximized="0"
     fit-margin-top="0"
     fit-margin-left="0"
     fit-margin-right="0"
     fit-margin-bottom="0" />
  <metadata
     id="metadata3624">
    <rdf:RDF>
      <cc:Work
         rdf:about="">
        <dc:format>image/svg+xml</dc:format>
        <dc:type
           rdf:resource="http://purl.org/dc/dcmitype/StillImage" />
        <dc:title></dc:title>
      </cc:Work>
    </rdf:RDF>
  </metadata>
  <g
     inkscape:label="Layer 1"
     inkscape:groupmode="layer"
     id="layer1"
     transform="translate(-21.788167,-993.23858)">
    <path
       inkscape:connector-curvature="0"
       d="m 80.672533,1034.6751 c -0.13963,2.9791 -3.42675,5.5356 -7.19612,5.4939 l -50.03962,-0.01 c -2.02813,-0.03 -2.18125,-1.8953 -0.48038,-4.0556 l 27.70687,-35.1972 c 0.48962,-0.6222 1.868,-1.33374 3.10713,-1.60864 l 25.85687,-5.86884 c 1.653,-0.36738 2.98987,-0.1895 2.96112,0.42237 l -1.91587,40.82351 z"
       style="fill:#2f6db3;fill-opacity:1;fill-rule:nonzero;stroke:none"
       id="path26" />
    <path
       inkscape:connector-curvature="0"
       d="m 62.770033,1011.7765 c 0,0 -8.42288,4.9889 -10.654,6.3102 -1.3065,0.7739 -4.555,1.8868 -5.75363,0.5107 -0.202,-0.2315 -0.71362,-0.8487 -0.71362,-0.8487 -0.3855,-0.4415 -1.36,-0.4518 -2.48925,-0.05 -0.37337,0.1325 -0.74163,0.3033 -1.08663,0.4997 -0.70025,0.3975 -1.31362,0.9048 -1.68875,1.4201 l -9.20986,12.6595 c -0.56975,0.7834 -0.7735,1.4967 -0.63275,2.0147 0.14387,0.53 0.64737,0.8535 1.47862,0.8348 l 18.50525,-0.428 c 1.03637,-0.024 2.17524,-0.4245 3.15325,-1.0746 0.48149,-0.32 0.9205,-0.6985 1.28575,-1.1184 1.08462,-1.2454 1.30749,-2.5784 0.58475,-3.4073 0,0 -0.94288,-1.0423 -1.27488,-1.4226 -1.77137,-2.0327 0.69263,-4.6439 2.133,-5.5392 2.45512,-1.5262 11.67137,-7.2549 11.67137,-7.2549 2.32363,-1.4443 2.7985,-3.2698 1.19725,-4.061 -1.50912,-0.7445 -4.37074,-0.31 -6.50587,0.9546"
       style="fill:#ffffff;fill-opacity:1;fill-rule:nonzero;stroke:none"
       id="path28" />
    <path
       inkscape:connector-curvature="0"
       d="m 76.368533,996.24746 -12.23963,2.6374 c -0.56837,0.1222 -1.14987,0.3383 -1.6275,0.5935 -0.23662,0.1268 -0.4485,0.2642 -0.62074,0.4053 -0.52513,0.42984 -0.58788,0.81434 -0.12975,0.97584 0,0 0.63712,0.2144 0.87412,0.298 1.39012,0.4915 -0.0346,1.7596 -0.98325,2.283 -1.66463,0.9176 -8.51238,4.6931 -8.51238,4.6931 -1.89212,1.0431 -2.79387,2.4041 -1.94812,3.0525 0.889,0.6825 3.32862,0.3036 5.372,-0.8596 0,0 7.36512,-4.1945 9.1495,-5.2111 1.01625,-0.5787 3.75987,-1.5417 5.60838,-0.8887 0.34012,0.1202 1.26099,0.4592 1.26099,0.4592 0.72463,0.2555 1.93226,0.156 3.07138,-0.2512 0.37737,-0.1346 0.71862,-0.2945 1.0095,-0.467 0.58575,-0.348 0.96125,-0.747 1.01762,-1.1066 l 0.97201,-6.18527 c 0.0425,-0.26787 -0.19775,-0.4475 -0.61451,-0.52287 -0.411,-0.0745 -0.99637,-0.0486 -1.65962,0.0945"
       style="fill:#ffffff;fill-opacity:1;fill-rule:nonzero;stroke:none"
       id="path30" />
    <path
       inkscape:connector-curvature="0"
       d="m 100.39528,1040.8372 c 1.32875,0 2.5565,-0.1863 3.69075,-0.5438 1.12675,-0.3575 2.12138,-0.8699 2.96825,-1.546 0.85461,-0.6683 1.51511,-1.4843 1.98886,-2.4322 0.47401,-0.9556 0.71501,-2.0278 0.72275,-3.2166 -0.007,-1.2355 -0.22525,-2.2844 -0.637,-3.139 -0.41962,-0.8469 -0.97125,-1.5619 -1.65512,-2.121 -0.68387,-0.5672 -1.43749,-1.0336 -2.26099,-1.3985 -0.816,-0.3731 -1.6395,-0.6917 -2.45512,-0.9639 -0.82388,-0.2717 -1.5775,-0.5438 -2.26138,-0.8078 -0.683497,-0.2639 -1.235127,-0.5825 -1.654747,-0.94 -0.412,-0.3575 -0.62963,-0.8083 -0.637,-1.3522 0.007,-0.6137 0.2405,-1.0877 0.69912,-1.4371 0.45063,-0.3424 1.06475,-0.5131 1.817997,-0.5209 0.76188,0.01 1.422,0.1399 1.98925,0.3962 0.55951,0.2565 1.04138,0.5595 1.4375,0.917 0.38838,0.3575 0.70688,0.6916 0.95563,1.018 l 4.24236,-3.1703 c -0.28775,-0.4892 -0.66825,-0.979 -1.15012,-1.4839 -0.47375,-0.505 -1.04887,-0.9712 -1.72487,-1.3986 -0.6835,-0.435 -1.47612,-0.777 -2.38537,-1.0414 -0.901,-0.2717 -1.93463,-0.4038 -3.0845,-0.4116 -1.250747,0 -2.416497,0.1633 -3.488627,0.4896 -1.07224,0.3264 -2.00449,0.8079 -2.81275,1.4294 -0.80012,0.6219 -1.42187,1.3755 -1.87262,2.2691 -0.45075,0.8933 -0.67575,1.9035 -0.6835,3.0378 0.0156,1.2277 0.22537,2.2765 0.63713,3.139 0.41175,0.8624 0.96337,1.5852 1.64687,2.1755 0.68388,0.5829 1.42975,1.0722 2.24575,1.461 0.82388,0.3961 1.6395,0.738 2.45512,1.0331 0.81576,0.2953 1.561877,0.5829 2.245377,0.8625 0.68388,0.2799 1.23562,0.5985 1.64738,0.9556 0.412,0.3575 0.62962,0.8004 0.637,1.3288 -0.007,0.7069 -0.2795,1.243 -0.80788,1.6239 -0.52825,0.3731 -1.25887,0.567 -2.1755,0.567 -0.909247,-0.01 -1.717117,-0.1319 -2.400997,-0.3807 -0.69125,-0.2408 -1.2975,-0.5672 -1.818,-0.9633 -0.51275,-0.404 -0.97912,-0.8392 -1.37525,-1.3132 l -3.776,3.3565 c 0.32625,0.5284 0.76138,1.0644 1.2975,1.5932 0.53613,0.5278 1.181,1.0097 1.93463,1.4527 0.75362,0.4429 1.62362,0.8004 2.59512,1.0644 0.97863,0.264 2.06688,0.404 3.262997,0.4117 z m 33.23948,-0.6058 7.179,0 7.3195,-24.3815 -6.99312,0 -4.33563,17.2952 -4.61512,-17.2952 -6.0605,0 -4.66187,17.2952 -4.28887,-17.2952 -6.99263,0 7.27262,24.3815 7.17901,0 4.52198,-15.6175 4.47563,15.6175 z m 16.4005,0 6.43325,0 0,-24.3815 -6.43325,0 0,24.3815 z m -0.5595,-30.2557 c 0.007,0.7073 0.17075,1.3365 0.505,1.8883 0.32625,0.5516 0.76925,0.9867 1.32863,1.3054 0.5595,0.3185 1.18887,0.4815 1.89575,0.4892 0.72249,-0.01 1.36775,-0.1707 1.93462,-0.4892 0.56725,-0.3187 1.01025,-0.7538 1.3365,-1.3054 0.33413,-0.5518 0.49713,-1.181 0.505,-1.8883 -0.007,-0.7068 -0.17087,-1.3365 -0.505,-1.8882 -0.32625,-0.5514 -0.76925,-0.9865 -1.3365,-1.305 -0.56687,-0.3185 -1.21212,-0.4819 -1.93462,-0.4896 -0.70688,0.01 -1.33625,0.1711 -1.89575,0.4896 -0.55938,0.3185 -1.00238,0.7536 -1.32863,1.305 -0.33425,0.5517 -0.49712,1.1814 -0.505,1.8882 z m 12.037,5.8742 -2.61075,0 0,5.221 2.564,0 0,9.6035 c 0,2.2067 0.28763,4.0403 0.878,5.5012 0.59063,1.4684 1.50738,2.564 2.75063,3.2943 1.23525,0.7225 2.82825,1.0877 4.763,1.0877 0.88537,-0.01 1.56925,-0.047 2.03562,-0.1165 0.47375,-0.07 0.70687,-0.1087 0.71462,-0.1166 l 0,-5.501 c -0.24874,0.023 -0.45074,0.039 -0.62149,0.039 -0.16338,0.01 -0.34188,0.01 -0.54388,0.01 -0.61375,0.01 -1.14975,-0.054 -1.6005,-0.1709 -0.4585,-0.1244 -0.82387,-0.3419 -1.119,-0.6526 -0.29512,-0.3185 -0.51275,-0.7615 -0.6605,-1.3363 -0.13962,-0.5828 -0.20975,-1.3208 -0.20975,-2.2222 l 0,-9.4171 4.56875,0 0,-5.221 -4.56875,0 0,-5.1283 -6.34,0 0,5.1283 z m 25.59363,19.3 c -1.35951,-0.01 -2.56388,-0.3185 -3.60526,-0.917 -1.04112,-0.5982 -1.84925,-1.4294 -2.43962,-2.4864 -0.59063,-1.0644 -0.89363,-2.2918 -0.90138,-3.6829 0,-0.9865 0.1555,-1.9112 0.46625,-2.7659 0.303,-0.8625 0.75363,-1.6161 1.33651,-2.2688 0.58262,-0.6527 1.28199,-1.1654 2.11324,-1.5385 0.8235,-0.3649 1.75613,-0.5513 2.79713,-0.5595 0.91662,0.01 1.73263,0.14 2.45512,0.3887 0.72288,0.241 1.35213,0.5439 1.896,0.9014 0.53613,0.3572 0.97913,0.707 1.33626,1.0411 l 1.81837,-5.4079 c -0.52863,-0.4117 -1.15788,-0.8156 -1.90375,-1.2196 -0.73813,-0.3965 -1.585,-0.7227 -2.54838,-0.9867 -0.96337,-0.2565 -2.04337,-0.3965 -3.24,-0.4043 -1.86487,0.01 -3.58187,0.3341 -5.15162,0.9711 -1.56938,0.6294 -2.9445,1.5308 -4.10988,2.6805 -1.16574,1.158 -2.06674,2.5177 -2.71175,4.0795 -0.65262,1.5615 -0.97937,3.2708 -0.98674,5.1357 0.007,1.8648 0.326,3.5663 0.96337,5.1126 0.63712,1.5537 1.53037,2.8981 2.68837,4.0326 1.15763,1.1343 2.53313,2.0123 4.118,2.6338 1.58488,0.6215 3.32538,0.9401 5.23663,0.9478 1.181,-0.016 2.26137,-0.1552 3.23225,-0.4273 0.97125,-0.2718 1.82587,-0.6137 2.56425,-1.0102 0.73025,-0.3961 1.33625,-0.7923 1.8025,-1.1728 l -1.72488,-5.2682 c -0.3575,0.3029 -0.80825,0.6297 -1.35212,0.9634 -0.5435,0.3341 -1.16538,0.6219 -1.8645,0.8546 -0.69938,0.241 -1.46088,0.3654 -2.28438,0.3732 z m 23.0765,-19.9063 c -1.057,0.01 -2.00475,0.1866 -2.85163,0.5209 -0.83937,0.3341 -1.56187,0.7689 -2.16,1.2897 -0.60625,0.5205 -1.08,1.0644 -1.422,1.6392 l 0,-12.1674 -6.4335,0 0,33.7054 6.4335,0 0,-14.6385 c 0.008,-0.878 0.1865,-1.6625 0.544,-2.3464 0.36487,-0.6839 0.878,-1.2274 1.5385,-1.6161 0.66012,-0.3962 1.43712,-0.5982 2.34637,-0.6059 0.738,0 1.41413,0.1785 2.02775,0.5361 0.606,0.3494 1.09563,0.8546 1.461,1.5073 0.37275,0.6527 0.55913,1.4293 0.56725,2.3386 l 0,14.8249 6.38649,0 0,-14.079 c 0.007,-1.041 -0.062,-2.0822 -0.20987,-3.1235 -0.1395,-1.0332 -0.38825,-2.02 -0.74575,-2.9527 -0.35763,-0.9322 -0.85475,-1.7556 -1.49175,-2.486 -0.63713,-0.7227 -1.44538,-1.2897 -2.424,-1.7092 -0.98713,-0.4199 -2.17599,-0.6296 -3.56637,-0.6374"
       style="fill:#231f20;fill-opacity:1;fill-rule:nonzero;stroke:none"
       id="path32" />
    <path
       inkscape:connector-curvature="0"
       d="m 246.7785,1006.526 -6.4335,0 0,11.8877 c -0.1475,-0.2175 -0.41175,-0.5048 -0.79275,-0.8468 -0.3805,-0.3497 -0.87013,-0.6994 -1.47613,-1.0569 -0.59812,-0.3494 -1.31312,-0.6446 -2.14437,-0.8855 -0.8235,-0.2488 -1.76388,-0.3731 -2.81262,-0.3809 -1.75613,0.01 -3.34101,0.3185 -4.75513,0.9404 -1.422,0.6215 -2.63413,1.4995 -3.644,2.6337 -1.018,1.142 -1.795,2.4942 -2.33888,4.056 -0.54362,1.5615 -0.81575,3.2943 -0.8235,5.1899 0.007,1.8804 0.303,3.6053 0.878,5.1594 0.58288,1.5615 1.40638,2.9059 2.47075,4.0401 1.05663,1.1345 2.31563,2.0126 3.76838,2.6341 1.45313,0.6215 3.06137,0.9323 4.81738,0.94 1.04112,-0.01 1.96587,-0.1396 2.78937,-0.3806 0.8235,-0.2409 1.53062,-0.536 2.13662,-0.8857 0.60588,-0.3498 1.0955,-0.6917 1.47613,-1.0337 0.38862,-0.3415 0.6605,-0.6136 0.82375,-0.8235 l 0,2.5177 6.0605,0 0,-33.7054 z m -6.24713,21.5844 c 0,0.9712 -0.14,1.8878 -0.42737,2.7351 -0.27963,0.8469 -0.69125,1.5926 -1.22738,2.2375 -0.53649,0.645 -1.18875,1.1499 -1.96587,1.5151 -0.76925,0.3576 -1.64725,0.544 -2.62625,0.5518 -1.22,-0.01 -2.3,-0.2952 -3.23225,-0.8625 -0.94,-0.5673 -1.67025,-1.3752 -2.20638,-2.4243 -0.52875,-1.0489 -0.8005,-2.2996 -0.80825,-3.7527 0.007,-1.4219 0.27213,-2.6728 0.79263,-3.7449 0.5205,-1.08 1.243,-1.9113 2.17563,-2.5175 0.93224,-0.5981 2.02774,-0.9089 3.27862,-0.9171 1.1965,0 2.261,0.2877 3.1935,0.8472 0.94012,0.5595 1.67812,1.3751 2.222,2.4396 0.544,1.0644 0.8235,2.3619 0.83137,3.8927 z m 9.38438,0 c 0.007,1.8415 0.303,3.5277 0.90137,5.0736 0.59813,1.5464 1.45288,2.8906 2.57175,4.0326 1.11863,1.1421 2.463,2.0279 4.04013,2.6571 1.5775,0.6372 3.34137,0.9558 5.30675,0.9635 1.21225,-0.01 2.31562,-0.1396 3.30237,-0.3961 0.99425,-0.2487 1.88013,-0.5829 2.65713,-0.9946 0.77712,-0.4118 1.45312,-0.8546 2.02787,-1.3363 0.57513,-0.4818 1.04913,-0.9558 1.42975,-1.4141 0.37313,-0.4585 0.65263,-0.8702 0.839,-1.2199 l -4.24237,-3.2166 c -0.17075,0.264 -0.427,0.5669 -0.75325,0.901 -0.32638,0.3341 -0.7385,0.6605 -1.22775,0.979 -0.48975,0.3108 -1.05662,0.5751 -1.71712,0.7849 -0.65275,0.202 -1.39075,0.3107 -2.22238,0.3185 -1.204,-0.01 -2.27625,-0.2486 -3.20887,-0.7228 -0.93225,-0.4737 -1.67025,-1.1342 -2.22225,-1.9732 -0.55138,-0.8313 -0.85438,-1.8025 -0.90888,-2.8981 l 17.15563,0 c 0.0234,-0.2332 0.039,-0.4663 0.039,-0.6994 0.007,-0.2333 0.007,-0.4664 0.007,-0.6991 -0.007,-2.6728 -0.46638,-4.9728 -1.39075,-6.9152 -0.92488,-1.9425 -2.261,-3.4342 -4.02488,-4.4911 -1.756,-1.0566 -3.9005,-1.585 -6.42575,-1.6005 -1.74013,0.01 -3.341,0.3341 -4.79375,0.9711 -1.45312,0.6449 -2.71175,1.5385 -3.77612,2.6962 -1.06438,1.158 -1.88825,2.5175 -2.4785,4.0793 -0.58288,1.5617 -0.878,3.2709 -0.88588,5.1202 z m 6.75962,-2.6572 c 0.0935,-0.9403 0.36525,-1.7872 0.81601,-2.5252 0.45074,-0.7381 1.04874,-1.3285 1.8025,-1.7561 0.75362,-0.4352 1.6395,-0.6524 2.64962,-0.6605 0.9865,0.01 1.8645,0.2101 2.62637,0.6141 0.76888,0.4117 1.37513,0.979 1.83363,1.717 0.45037,0.7381 0.70687,1.6084 0.76113,2.6107 l -10.48925,0 z m 32.77313,14.7782 8.71749,-24.3815 -6.85312,0 -5.59412,17.5283 -5.59413,-17.5283 -6.85312,0 8.71787,24.3815 7.45913,0 z"
       style="fill:#2f6db3;fill-opacity:1;fill-rule:nonzero;stroke:none"
       id="path34" />
  </g>
</svg>
