<?xml version="1.0" encoding="UTF-8" standalone="no"?>
<!-- Created with Inkscape (http://www.inkscape.org/) -->

<svg
   xmlns:dc="http://purl.org/dc/elements/1.1/"
   xmlns:cc="http://creativecommons.org/ns#"
   xmlns:rdf="http://www.w3.org/1999/02/22-rdf-syntax-ns#"
   xmlns:svg="http://www.w3.org/2000/svg"
   xmlns="http://www.w3.org/2000/svg"
   xmlns:sodipodi="http://sodipodi.sourceforge.net/DTD/sodipodi-0.dtd"
   xmlns:inkscape="http://www.inkscape.org/namespaces/inkscape"
   width="86.188934mm"
   height="21.460632mm"
   viewBox="0 0 305.39386 76.04161"
   id="svg3657"
   version="1.1"
   inkscape:version="0.91 r13725"
   sodipodi:docname="switchdev_logo_red_sticker.svg">
  <defs
     id="defs3659" />
  <sodipodi:namedview
     id="base"
     pagecolor="#ffffff"
     bordercolor="#666666"
     borderopacity="1.0"
     inkscape:pageopacity="0.0"
     inkscape:pageshadow="2"
     inkscape:zoom="2.6970588"
     inkscape:cx="167.14286"
     inkscape:cy="41.428571"
     inkscape:document-units="px"
     inkscape:current-layer="layer1"
     showgrid="false"
     fit-margin-top="0"
     fit-margin-left="0"
     fit-margin-right="0"
     fit-margin-bottom="0"
     inkscape:window-width="1366"
     inkscape:window-height="768"
     inkscape:window-x="0"
     inkscape:window-y="0"
     inkscape:window-maximized="0" />
  <metadata
     id="metadata3662">
    <rdf:RDF>
      <cc:Work
         rdf:about="">
        <dc:format>image/svg+xml</dc:format>
        <dc:type
           rdf:resource="http://purl.org/dc/dcmitype/StillImage" />
        <dc:title></dc:title>
      </cc:Work>
    </rdf:RDF>
  </metadata>
  <g
     inkscape:label="Layer 1"
     inkscape:groupmode="layer"
     id="layer1"
     transform="translate(-110.16021,-137.19854)">
    <path
       inkscape:connector-curvature="0"
       d="m 126.29146,212.81574 c -0.98138,0 -1.9395,-0.0999 -2.865,-0.29025 -1.49675,-0.24625 -2.87863,-0.67987 -4.14,-1.28125 -4.01288,-1.91475 -6.68913,-5.08212 -8.02138,-9.20975 -0.95075,-2.93562 -1,-6.06262 -0.141,-9.19775 0.66075,-2.41575 1.85625,-4.83125 3.56138,-6.99762 l 27.70687,-35.19713 c 1.49625,-1.902 3.64288,-3.57412 5.92088,-4.75337 1.50163,-0.77775 3.35587,-1.46263 5.21675,-1.88138 l -0.002,-0.0113 0.0357,-0.009 -0.009,-0.0422 c 0.34337,-0.0761 0.68712,-0.13925 1.02975,-0.1895 l 24.77337,-5.62287 -0.01,-0.0421 c 0.68175,-0.15487 1.36275,-0.25663 2.0395,-0.31012 1.25188,-0.16751 2.45875,-0.22288 3.55013,-0.1715 l 0,0.003 0.002,-0.0425 c 0.86525,0.0408 1.7085,0.15837 2.52388,0.34575 1.10012,0.21374 2.15675,0.53225 3.14399,0.95112 l 0.0131,-0.0312 c 1.02287,0.43475 1.96825,0.97625 2.82888,1.60475 2.93424,2.01512 4.92487,4.9305 5.77137,8.73788 l 0.0543,-0.0125 c 0.34787,1.56937 0.42062,3.13587 0.25088,4.64887 l -0.2895,6.16813 c 16.60112,0.0127 24.8655,0.25837 40.28174,0.9 0.13038,-0.0431 0.2615,-0.0846 0.39363,-0.12438 0.21575,-0.47862 0.45963,-0.95062 0.7335,-1.413 l 0.0219,0.0131 c 0.77325,-1.3025 1.71888,-2.50475 2.83788,-3.60425 1.0995,-1.08038 2.33013,-2.008 3.68612,-2.77975 0.647,-0.36813 1.317,-0.69413 2.01088,-0.978 0.73487,-0.33263 1.50762,-0.60725 2.31512,-0.81563 l 0.0397,0.15375 0.0386,-0.0131 -0.0238,-0.0925 c 0.55912,-0.14413 1.12637,-0.26175 1.70175,-0.3515 0.95037,-0.18988 1.93475,-0.28513 2.94237,-0.27425 l -6.2e-4,0.0554 c 38.28862,0.4695 59.20012,0.17713 93.421,0.17713 5.9425,0 11.02962,3.65775 13.13612,8.84412 14.676,0.60588 25.62125,0.47975 37.97188,0.47975 1.6735,-0.0334 3.38137,0.23025 5.05137,0.82738 7.37038,2.63512 11.20925,10.74712 8.574,18.11762 l -0.006,-0.003 -8.54187,23.88963 c -1.81412,5.737 -7.179,9.89537 -13.5155,9.89537 -22.22013,0 -266.00988,-0.16712 -266.01425,-0.0715 z"
       style="fill:none;stroke:#d3d2d2;stroke-width:0.70862502;stroke-linecap:butt;stroke-linejoin:miter;stroke-miterlimit:22.92558479;stroke-dasharray:none;stroke-opacity:1"
       id="path12" />
    <path
       inkscape:connector-curvature="0"
       d="m 183.52971,193.15787 c -0.13963,2.97912 -3.42675,5.53562 -7.19612,5.49387 l -50.03963,-0.009 c -2.02813,-0.0301 -2.18125,-1.89525 -0.48038,-4.05562 l 27.70688,-35.19713 c 0.48962,-0.62225 1.868,-1.33375 3.10713,-1.60862 l 25.85687,-5.86888 c 1.653,-0.36738 2.98987,-0.1895 2.96112,0.42238 l -1.91587,40.82324 z"
       style="fill:#ed114e;fill-opacity:1;fill-rule:nonzero;stroke:none"
       id="path14" />
    <path
       inkscape:connector-curvature="0"
       d="m 165.62721,170.25924 c 0,0 -8.42288,4.98888 -10.654,6.31025 -1.3065,0.77388 -4.555,1.88675 -5.75363,0.51063 -0.202,-0.2315 -0.71362,-0.84863 -0.71362,-0.84863 -0.3855,-0.4415 -1.36,-0.45187 -2.48925,-0.0496 -0.37337,0.1325 -0.74163,0.30325 -1.08663,0.49962 -0.70025,0.3975 -1.31362,0.90488 -1.68875,1.42013 l -9.20987,12.65949 c -0.56975,0.78338 -0.7735,1.49675 -0.63275,2.01476 0.14387,0.52999 0.64737,0.8535 1.47862,0.83474 l 18.50526,-0.42799 c 1.03637,-0.0237 2.17524,-0.4245 3.15325,-1.07463 0.48149,-0.32 0.9205,-0.6985 1.28575,-1.11837 1.08462,-1.24538 1.30749,-2.57838 0.58475,-3.40725 0,0 -0.94288,-1.04238 -1.27488,-1.42263 -1.77137,-2.03275 0.69263,-4.64387 2.133,-5.53925 2.45512,-1.52612 11.67137,-7.25487 11.67137,-7.25487 2.32363,-1.44425 2.7985,-3.26975 1.19725,-4.061 -1.50912,-0.7445 -4.37074,-0.31 -6.50587,0.95462"
       style="fill:#ffffff;fill-opacity:1;fill-rule:nonzero;stroke:none"
       id="path16" />
    <path
       inkscape:connector-curvature="0"
       d="m 179.22571,154.73024 -12.23963,2.63738 c -0.56837,0.12224 -1.14987,0.33837 -1.6275,0.59349 -0.23662,0.12688 -0.4485,0.26426 -0.62074,0.40538 -0.52513,0.42975 -0.58788,0.81425 -0.12975,0.97575 0,0 0.63712,0.21437 0.87412,0.298 1.39012,0.4915 -0.0346,1.75963 -0.98325,2.283 -1.66463,0.91763 -8.51238,4.69313 -8.51238,4.69313 -1.89212,1.04312 -2.79387,2.40412 -1.94812,3.0525 0.889,0.68249 3.32862,0.30362 5.372,-0.85963 0,0 7.36512,-4.1945 9.1495,-5.21113 1.01625,-0.57862 3.75987,-1.54162 5.60838,-0.88862 0.34012,0.12013 1.26099,0.45912 1.26099,0.45912 0.72463,0.2555 1.93226,0.156 3.07138,-0.25112 0.37737,-0.13462 0.71862,-0.2945 1.0095,-0.467 0.58575,-0.348 0.96125,-0.747 1.01762,-1.10663 l 0.97201,-6.18525 c 0.0425,-0.26774 -0.19775,-0.4475 -0.61451,-0.52287 -0.411,-0.0745 -0.99637,-0.0486 -1.65962,0.0945"
       style="fill:#ffffff;fill-opacity:1;fill-rule:nonzero;stroke:none"
       id="path18" />
    <path
       inkscape:connector-curvature="0"
       d="m 203.25246,199.31999 c 1.32875,0 2.5565,-0.18637 3.69075,-0.54387 1.12675,-0.35751 2.12138,-0.86988 2.96825,-1.546 0.85462,-0.66826 1.51512,-1.48426 1.98887,-2.43213 0.47401,-0.95562 0.71501,-2.02788 0.72275,-3.21663 -0.007,-1.2355 -0.22525,-2.28437 -0.637,-3.13899 -0.41962,-0.84688 -0.97125,-1.56188 -1.65512,-2.12101 -0.68388,-0.56724 -1.4375,-1.03362 -2.261,-1.3985 -0.816,-0.37312 -1.6395,-0.69175 -2.45512,-0.96387 -0.82388,-0.27175 -1.5775,-0.54388 -2.26138,-0.80787 -0.6835,-0.26388 -1.23513,-0.58251 -1.65475,-0.94001 -0.412,-0.3575 -0.62963,-0.80825 -0.637,-1.35212 0.007,-0.61375 0.2405,-1.08775 0.69912,-1.43713 0.45063,-0.34237 1.06475,-0.51312 1.818,-0.52087 0.76188,0.007 1.422,0.13987 1.98925,0.39613 0.55951,0.25649 1.04138,0.55949 1.4375,0.91699 0.38838,0.35751 0.70688,0.69163 0.95563,1.018 l 4.24237,-3.17025 c -0.28775,-0.48925 -0.66825,-0.979 -1.15012,-1.48387 -0.47375,-0.505 -1.04888,-0.97125 -1.72488,-1.39863 -0.6835,-0.435 -1.47612,-0.777 -2.38537,-1.04137 -0.901,-0.27175 -1.93463,-0.40388 -3.0845,-0.41163 -1.25075,0 -2.4165,0.16325 -3.48863,0.48963 -1.07224,0.32637 -2.00449,0.80788 -2.81275,1.42938 -0.80012,0.62187 -1.42187,1.3755 -1.87262,2.26912 -0.45075,0.89325 -0.67575,1.9035 -0.6835,3.03775 0.0156,1.22775 0.22537,2.2765 0.63713,3.139 0.41175,0.86238 0.96337,1.58525 1.64687,2.1755 0.68388,0.58288 1.42975,1.07225 2.24575,1.461 0.82388,0.39612 1.6395,0.738 2.45512,1.03313 0.81576,0.29525 1.56188,0.58287 2.24538,0.86249 0.68388,0.27988 1.23562,0.5985 1.64738,0.95563 0.412,0.3575 0.62962,0.80037 0.637,1.32875 -0.007,0.70687 -0.2795,1.243 -0.80788,1.62388 -0.52825,0.37312 -1.25887,0.567 -2.1755,0.567 -0.90925,-0.008 -1.71712,-0.13188 -2.401,-0.38063 -0.69125,-0.24088 -1.2975,-0.56725 -1.818,-0.96338 -0.51275,-0.404 -0.97912,-0.83912 -1.37525,-1.31312 l -3.776,3.3565 c 0.32625,0.52838 0.76138,1.06438 1.2975,1.59312 0.53613,0.52788 1.181,1.00976 1.93463,1.45275 0.75362,0.44288 1.62362,0.80038 2.59512,1.06438 0.97863,0.264 2.06688,0.404 3.263,0.41175 z m 33.2395,-0.60588 7.179,0 7.3195,-24.3815 -6.99312,0 -4.33563,17.29526 -4.61512,-17.29526 -6.06051,0 -4.66187,17.29526 -4.28887,-17.29526 -6.99263,0 7.27262,24.3815 7.17901,0 4.52199,-15.61749 4.47563,15.6175 z m 16.4005,0 6.43325,0 0,-24.3815 -6.43325,0 0,24.3815 z m -0.5595,-30.25562 c 0.007,0.70725 0.17075,1.3365 0.505,1.88825 0.32625,0.55163 0.76925,0.98675 1.32863,1.30538 0.5595,0.3185 1.18887,0.4815 1.89575,0.48925 0.72249,-0.008 1.36775,-0.17075 1.93462,-0.48925 0.56725,-0.31863 1.01025,-0.75375 1.3365,-1.30538 0.33413,-0.55175 0.49713,-1.181 0.505,-1.88825 -0.007,-0.70687 -0.17087,-1.3365 -0.505,-1.88825 -0.32625,-0.55138 -0.76925,-0.9865 -1.3365,-1.305 -0.56687,-0.3185 -1.21212,-0.48187 -1.93462,-0.48963 -0.70688,0.008 -1.33625,0.17113 -1.89575,0.48963 -0.55938,0.3185 -1.00238,0.75362 -1.32863,1.305 -0.33425,0.55175 -0.49712,1.18138 -0.505,1.88825 z m 12.037,5.87412 -2.61075,0 0,5.221 2.564,0 0,9.60351 c 0,2.20674 0.28763,4.04037 0.878,5.50124 0.59063,1.46838 1.50738,2.56401 2.75063,3.29426 1.23525,0.72249 2.82825,1.08775 4.763,1.08775 0.88537,-0.008 1.56925,-0.0467 2.03562,-0.1165 0.47375,-0.0702 0.70687,-0.10875 0.71462,-0.11663 l 0,-5.501 c -0.24874,0.0234 -0.45074,0.039 -0.62149,0.039 -0.16338,0.007 -0.34188,0.007 -0.54388,0.007 -0.61375,0.008 -1.14975,-0.0543 -1.6005,-0.17088 -0.4585,-0.12437 -0.82387,-0.34187 -1.119,-0.65262 -0.29512,-0.3185 -0.51275,-0.7615 -0.6605,-1.33625 -0.13962,-0.58288 -0.20975,-1.32088 -0.20975,-2.22225 l 0,-9.41713 4.56875,0 0,-5.221 -4.56875,0 0,-5.12825 -6.34,0 0,5.12825 z m 25.59363,19.3 c -1.35951,-0.007 -2.56388,-0.31849 -3.60526,-0.91699 -1.04112,-0.59813 -1.84925,-1.42938 -2.43962,-2.48638 -0.59063,-1.06438 -0.89363,-2.29175 -0.90138,-3.68288 0,-0.9865 0.1555,-1.91125 0.46625,-2.76587 0.303,-0.8625 0.75363,-1.61612 1.33651,-2.26887 0.58262,-0.65263 1.28199,-1.16538 2.11324,-1.53851 0.8235,-0.36487 1.75613,-0.55124 2.79713,-0.5595 0.91662,0.009 1.73263,0.14 2.45512,0.38875 0.72288,0.241 1.35213,0.54388 1.896,0.90138 0.53613,0.35725 0.97913,0.707 1.33626,1.04112 l 1.81837,-5.40787 c -0.52863,-0.41175 -1.15788,-0.81563 -1.90375,-1.21963 -0.73813,-0.3965 -1.585,-0.72275 -2.54838,-0.98675 -0.96337,-0.2565 -2.04337,-0.3965 -3.24,-0.40425 -1.86487,0.008 -3.58187,0.33413 -5.15162,0.97113 -1.56938,0.62937 -2.9445,1.53075 -4.10988,2.6805 -1.16574,1.158 -2.06674,2.51762 -2.71175,4.0795 -0.65262,1.5615 -0.97937,3.27075 -0.98674,5.13562 0.007,1.86488 0.326,3.56638 0.96337,5.11263 0.63712,1.55375 1.53037,2.89812 2.68837,4.03262 1.15763,1.13425 2.53313,2.01225 4.118,2.63375 1.58488,0.62151 3.32538,0.94013 5.23663,0.94788 1.181,-0.0156 2.26137,-0.15525 3.23225,-0.42738 0.97125,-0.27174 1.82587,-0.61362 2.56425,-1.01012 0.73025,-0.39613 1.33625,-0.79238 1.8025,-1.17288 l -1.72488,-5.26812 c -0.3575,0.30287 -0.80825,0.62962 -1.35212,0.96337 -0.5435,0.33413 -1.16538,0.62188 -1.8645,0.85463 -0.69938,0.241 -1.46088,0.36537 -2.28438,0.37312 z m 23.0765,-19.90625 c -1.057,0.008 -2.00475,0.18663 -2.85163,0.52088 -0.83937,0.33412 -1.56187,0.76887 -2.16,1.28975 -0.60625,0.5205 -1.08,1.06437 -1.422,1.63912 l 0,-12.16737 -6.4335,0 0,33.70537 6.4335,0 0,-14.6385 c 0.008,-0.878 0.1865,-1.6625 0.544,-2.34637 0.36487,-0.68388 0.878,-1.22738 1.5385,-1.61612 0.66012,-0.39613 1.43712,-0.59813 2.34637,-0.60588 0.738,0 1.41413,0.17862 2.02775,0.53612 0.606,0.34938 1.09563,0.85463 1.461,1.50726 0.37275,0.65275 0.55913,1.42937 0.56725,2.33862 l 0,14.82487 6.3865,0 0,-14.079 c 0.007,-1.04099 -0.062,-2.08212 -0.20987,-3.12349 -0.1395,-1.03313 -0.38825,-2.02 -0.74575,-2.95263 -0.35763,-0.93225 -0.85475,-1.75562 -1.49175,-2.486 -0.63713,-0.72275 -1.44538,-1.28975 -2.424,-1.70925 -0.98713,-0.41987 -2.176,-0.62962 -3.56638,-0.63738"
       style="fill:#231f20;fill-opacity:1;fill-rule:nonzero;stroke:none"
       id="path20" />
    <path
       inkscape:connector-curvature="0"
       d="m 349.63571,165.00874 -6.4335,0 0,11.88775 c -0.1475,-0.2175 -0.41175,-0.50488 -0.79275,-0.84687 -0.3805,-0.34963 -0.87013,-0.69938 -1.47613,-1.05688 -0.59812,-0.34937 -1.31312,-0.64463 -2.14437,-0.8855 -0.8235,-0.24875 -1.76388,-0.37312 -2.81262,-0.38088 -1.75613,0.008 -3.34101,0.31851 -4.75513,0.94038 -1.422,0.6215 -2.63413,1.4995 -3.644,2.63375 -1.018,1.142 -1.795,2.49412 -2.33888,4.056 -0.54362,1.5615 -0.81575,3.29425 -0.8235,5.18988 0.007,1.88037 0.303,3.60525 0.878,5.15937 0.58288,1.5615 1.40638,2.90587 2.47075,4.04013 1.05663,1.1345 2.31563,2.01262 3.76838,2.63412 1.45313,0.6215 3.06137,0.93225 4.81738,0.94 1.04112,-0.008 1.96587,-0.13962 2.78937,-0.38062 0.8235,-0.24088 1.53062,-0.536 2.13662,-0.88576 0.60588,-0.34974 1.0955,-0.69162 1.47613,-1.03362 0.38862,-0.3415 0.6605,-0.61363 0.82375,-0.8235 l 0,2.51762 6.0605,0 0,-33.70537 z m -6.24713,21.58438 c 0,0.97125 -0.14,1.88787 -0.42737,2.73512 -0.27963,0.84688 -0.69125,1.59262 -1.22738,2.23762 -0.53649,0.64488 -1.18875,1.14976 -1.96587,1.51501 -0.76925,0.35762 -1.64725,0.544 -2.62625,0.55174 -1.22,-0.007 -2.3,-0.29512 -3.23225,-0.8625 -0.94,-0.56724 -1.67025,-1.37512 -2.20638,-2.42424 -0.52875,-1.04888 -0.8005,-2.29963 -0.80825,-3.75275 0.007,-1.42188 0.27213,-2.67276 0.79263,-3.74488 0.5205,-1.08 1.243,-1.91125 2.17563,-2.5175 0.93224,-0.59812 2.02774,-0.90888 3.27862,-0.91713 1.1965,0 2.261,0.28776 3.1935,0.84725 0.94012,0.5595 1.67812,1.37513 2.222,2.43963 0.544,1.06438 0.8235,2.36187 0.83137,3.89263 z m 9.38438,0 c 0.007,1.8415 0.303,3.52775 0.90137,5.07362 0.59813,1.54637 1.45288,2.89063 2.57175,4.03262 1.11863,1.14213 2.463,2.02788 4.04013,2.65713 1.5775,0.63713 3.34137,0.95575 5.30675,0.9635 1.21225,-0.008 2.31562,-0.13963 3.30237,-0.39612 0.99425,-0.24876 1.88013,-0.58288 2.65713,-0.99463 0.77712,-0.41175 1.45312,-0.85463 2.02787,-1.33625 0.57513,-0.48188 1.04913,-0.95588 1.42975,-1.41412 0.37313,-0.45851 0.65263,-0.87026 0.839,-1.21988 l -4.24237,-3.21663 c -0.17075,0.264 -0.427,0.56688 -0.75325,0.901 -0.32638,0.33413 -0.7385,0.6605 -1.22775,0.979 -0.48975,0.31075 -1.05662,0.57513 -1.71712,0.78488 -0.65275,0.202 -1.39075,0.31075 -2.22238,0.31862 -1.204,-0.007 -2.27625,-0.24875 -3.20887,-0.72287 -0.93225,-0.47375 -1.67025,-1.13425 -2.22225,-1.97325 -0.55138,-0.83125 -0.85438,-1.8025 -0.90888,-2.89813 l 17.15563,0 c 0.0234,-0.23312 0.039,-0.46624 0.039,-0.69937 0.007,-0.23325 0.007,-0.46638 0.007,-0.69913 -0.007,-2.67275 -0.46638,-4.97275 -1.39075,-6.91512 -0.92488,-1.9425 -2.261,-3.43425 -4.02488,-4.49113 -1.756,-1.05662 -3.9005,-1.58499 -6.42575,-1.6005 -1.74013,0.008 -3.341,0.33413 -4.79375,0.97113 -1.45312,0.64487 -2.71175,1.5385 -3.77612,2.69613 -1.06438,1.158 -1.88825,2.5175 -2.4785,4.07937 -0.58288,1.56162 -0.878,3.27088 -0.88588,5.12013 z m 6.75962,-2.65713 c 0.0935,-0.94038 0.36525,-1.78725 0.81601,-2.52525 0.45074,-0.73812 1.04874,-1.3285 1.8025,-1.75612 0.75362,-0.43513 1.6395,-0.65238 2.64962,-0.6605 0.9865,0.009 1.8645,0.21012 2.62637,0.61412 0.76888,0.41175 1.37513,0.979 1.83363,1.717 0.45037,0.73813 0.70687,1.60838 0.76113,2.61075 l -10.48925,0 z m 32.77313,14.77812 8.7175,-24.3815 -6.85313,0 -5.59412,17.52838 -5.59413,-17.52838 -6.85312,0 8.71787,24.3815 7.45913,0 z"
       style="fill:#ed114e;fill-opacity:1;fill-rule:nonzero;stroke:none"
       id="path22" />
  </g>
</svg>
